<svg width="100" height="100" viewBox="0 0 183 161" fill="none" xmlns="http://www.w3.org/2000/svg">
<g filter="url(#filter0_f_28401_924)">
<ellipse cx="111.77" cy="57.4977" rx="19.6645" ry="19.4977" fill="#EC602E" fill-opacity="0.5"/>
</g>
<path d="M129.856 58.137C129.856 68.0293 121.766 76.0621 111.77 76.0621C101.773 76.0621 93.6833 68.0293 93.6833 58.137C93.6833 48.2447 101.773 40.2119 111.77 40.2119C121.766 40.2119 129.856 48.2447 129.856 58.137Z" fill="url(#paint0_linear_28401_924)" stroke="url(#paint1_linear_28401_924)" stroke-width="1.86667"/>
<mask id="mask0_28401_924" style="mask-type:alpha" maskUnits="userSpaceOnUse" x="92" y="49" width="39" height="28">
<path d="M130.789 58.137C130.789 68.5522 122.274 76.9954 111.77 76.9954C101.265 76.9954 92.75 68.5522 92.75 58.137C92.75 47.7218 99.8148 50.1461 110.319 50.1461C120.823 50.1461 130.789 47.7218 130.789 58.137Z" fill="url(#paint2_linear_28401_924)"/>
</mask>
<g mask="url(#mask0_28401_924)">
<g filter="url(#filter1_f_28401_924)">
<path fill-rule="evenodd" clip-rule="evenodd" d="M126.76 106.401C126.814 106.402 126.867 106.402 126.921 106.402C134.577 106.402 140.783 100.248 140.783 92.6576C140.783 85.0669 134.577 78.9133 126.921 78.9133C126.867 78.9133 126.814 78.9137 126.76 78.9143V78.9133H117.923C118.116 77.7699 118.217 76.5953 118.217 75.3974C118.217 63.7465 108.691 54.3015 96.9409 54.3015C85.1903 54.3015 75.6645 63.7465 75.6645 75.3974C75.6645 76.642 75.7732 77.8614 75.9817 79.0468C69.2441 79.982 64.0592 85.7195 64.0592 92.6576C64.0592 100.248 70.2654 106.402 77.9211 106.402C77.9751 106.402 78.0291 106.402 78.083 106.401L78.0823 106.402H126.76V106.401Z" fill="#EC602E"/>
</g>
</g>
<g filter="url(#filter2_bd_28401_924)">
<mask id="path-5-inside-1_28401_924" fill="white">
<path fill-rule="evenodd" clip-rule="evenodd" d="M118.701 107.999C118.754 108 118.808 108 118.862 108C126.518 108 132.724 101.847 132.724 94.2558C132.724 86.665 126.518 80.5115 118.862 80.5115C118.808 80.5115 118.754 80.5118 118.701 80.5124V80.5115H115.12C115.249 79.5709 115.316 78.6105 115.316 77.6347C115.316 65.9838 105.79 56.5388 94.0394 56.5388C82.2889 56.5388 72.7631 65.9838 72.7631 77.6347C72.7631 78.7341 72.8479 79.8138 73.0114 80.8678C71.9996 80.6347 70.9452 80.5115 69.8618 80.5115C62.2062 80.5115 56 86.665 56 94.2558C56 101.847 62.2062 108 69.8618 108C69.9159 108 69.9699 108 70.0238 107.999L70.0231 108H118.701V107.999Z"/>
</mask>
<path fill-rule="evenodd" clip-rule="evenodd" d="M118.701 107.999C118.754 108 118.808 108 118.862 108C126.518 108 132.724 101.847 132.724 94.2558C132.724 86.665 126.518 80.5115 118.862 80.5115C118.808 80.5115 118.754 80.5118 118.701 80.5124V80.5115H115.12C115.249 79.5709 115.316 78.6105 115.316 77.6347C115.316 65.9838 105.79 56.5388 94.0394 56.5388C82.2889 56.5388 72.7631 65.9838 72.7631 77.6347C72.7631 78.7341 72.8479 79.8138 73.0114 80.8678C71.9996 80.6347 70.9452 80.5115 69.8618 80.5115C62.2062 80.5115 56 86.665 56 94.2558C56 101.847 62.2062 108 69.8618 108C69.9159 108 69.9699 108 70.0238 107.999L70.0231 108H118.701V107.999Z" fill="url(#paint3_linear_28401_924)" shape-rendering="crispEdges"/>
<path d="M118.701 107.999L118.723 105.999C118.189 105.993 117.674 106.201 117.295 106.577C116.915 106.953 116.701 107.465 116.701 107.999H118.701ZM118.701 80.5124H116.701C116.701 81.0467 116.915 81.5589 117.295 81.9346C117.674 82.3103 118.189 82.5183 118.723 82.5123L118.701 80.5124ZM118.701 80.5115H120.701C120.701 79.4069 119.805 78.5115 118.701 78.5115V80.5115ZM115.12 80.5115L113.138 80.239C113.06 80.8116 113.232 81.3902 113.612 81.8258C113.992 82.2615 114.542 82.5115 115.12 82.5115V80.5115ZM73.0114 80.8678L72.5625 82.8168C73.2091 82.9657 73.8875 82.7843 74.3734 82.3324C74.8594 81.8805 75.0895 81.217 74.9878 80.5612L73.0114 80.8678ZM70.0238 107.999L71.5897 109.243C72.0697 108.639 72.1594 107.813 71.82 107.12C71.4807 106.427 70.7728 105.991 70.0012 105.999L70.0238 107.999ZM70.0231 108L68.4572 106.756C67.9797 107.357 67.8882 108.178 68.2219 108.869C68.5556 109.561 69.2555 110 70.0231 110V108ZM118.701 108V110C119.805 110 120.701 109.105 120.701 108H118.701ZM118.678 109.999C118.739 110 118.801 110 118.862 110V106C118.816 106 118.769 106 118.723 105.999L118.678 109.999ZM118.862 110C127.606 110 134.724 102.967 134.724 94.2558H130.724C130.724 100.726 125.429 106 118.862 106V110ZM134.724 94.2558C134.724 85.5444 127.606 78.5115 118.862 78.5115V82.5115C125.429 82.5115 130.724 87.7856 130.724 94.2558H134.724ZM118.862 78.5115C118.801 78.5115 118.739 78.5118 118.678 78.5125L118.723 82.5123C118.769 82.5117 118.816 82.5115 118.862 82.5115V78.5115ZM116.701 80.5115V80.5124H120.701V80.5115H116.701ZM115.12 82.5115H118.701V78.5115H115.12V82.5115ZM117.101 80.7839C117.243 79.7533 117.316 78.7019 117.316 77.6347H113.316C113.316 78.5191 113.255 79.3884 113.138 80.239L117.101 80.7839ZM117.316 77.6347C117.316 64.8632 106.879 54.5388 94.0394 54.5388V58.5388C104.702 58.5388 113.316 67.1044 113.316 77.6347H117.316ZM94.0394 54.5388C81.2004 54.5388 70.7631 64.8632 70.7631 77.6347H74.7631C74.7631 67.1044 83.3773 58.5388 94.0394 58.5388V54.5388ZM70.7631 77.6347C70.7631 78.8371 70.8559 80.0193 71.0351 81.1744L74.9878 80.5612C74.84 79.6083 74.7631 78.6311 74.7631 77.6347H70.7631ZM73.4604 78.9188C72.3023 78.6521 71.0973 78.5115 69.8618 78.5115V82.5115C70.7931 82.5115 71.6969 82.6174 72.5625 82.8168L73.4604 78.9188ZM69.8618 78.5115C61.1177 78.5115 54 85.5444 54 94.2558H58C58 87.7856 63.2946 82.5115 69.8618 82.5115V78.5115ZM54 94.2558C54 102.967 61.1177 110 69.8618 110V106C63.2946 106 58 100.726 58 94.2558H54ZM69.8618 110C69.9235 110 69.9851 110 70.0464 109.999L70.0012 105.999C69.9547 106 69.9083 106 69.8618 106V110ZM71.5889 109.244L71.5897 109.243L68.458 106.755L68.4572 106.756L71.5889 109.244ZM118.701 106H70.0231V110H118.701V106ZM116.701 107.999V108H120.701V107.999H116.701Z" fill="url(#paint4_linear_28401_924)" mask="url(#path-5-inside-1_28401_924)"/>
</g>
<g filter="url(#filter3_bd_28401_924)">
<mask id="path-7-inside-2_28401_924" fill="white">
<path fill-rule="evenodd" clip-rule="evenodd" d="M143.866 93.7286C143.905 93.729 143.943 93.7293 143.982 93.7293C149.515 93.7293 154 89.2822 154 83.7964C154 78.3107 149.515 73.8636 143.982 73.8636C143.943 73.8636 143.905 73.8638 143.866 73.8642V73.8636H141.278C141.371 73.1838 141.42 72.4898 141.42 71.7846C141.42 63.3646 134.535 56.5388 126.043 56.5388C117.551 56.5388 110.667 63.3646 110.667 71.7846C110.667 72.5791 110.728 73.3594 110.847 74.1211C110.115 73.9526 109.353 73.8636 108.57 73.8636C103.038 73.8636 98.5526 78.3107 98.5526 83.7964C98.5526 89.2822 103.038 93.7293 108.57 93.7293C108.609 93.7293 108.649 93.729 108.687 93.7286L108.687 93.7293H143.866V93.7286Z"/>
</mask>
<path fill-rule="evenodd" clip-rule="evenodd" d="M143.866 93.7286C143.905 93.729 143.943 93.7293 143.982 93.7293C149.515 93.7293 154 89.2822 154 83.7964C154 78.3107 149.515 73.8636 143.982 73.8636C143.943 73.8636 143.905 73.8638 143.866 73.8642V73.8636H141.278C141.371 73.1838 141.42 72.4898 141.42 71.7846C141.42 63.3646 134.535 56.5388 126.043 56.5388C117.551 56.5388 110.667 63.3646 110.667 71.7846C110.667 72.5791 110.728 73.3594 110.847 74.1211C110.115 73.9526 109.353 73.8636 108.57 73.8636C103.038 73.8636 98.5526 78.3107 98.5526 83.7964C98.5526 89.2822 103.038 93.7293 108.57 93.7293C108.609 93.7293 108.649 93.729 108.687 93.7286L108.687 93.7293H143.866V93.7286Z" fill="url(#paint5_linear_28401_924)" shape-rendering="crispEdges"/>
<path d="M143.866 93.7286L143.888 91.7287C143.354 91.7227 142.84 91.9307 142.46 92.3064C142.08 92.6821 141.866 93.1943 141.866 93.7286H143.866ZM143.866 73.8642H141.866C141.866 74.3986 142.08 74.9107 142.46 75.2864C142.84 75.6621 143.354 75.8701 143.888 75.8641L143.866 73.8642ZM143.866 73.8636H145.866C145.866 72.759 144.97 71.8636 143.866 71.8636V73.8636ZM141.278 73.8636L139.296 73.5911C139.218 74.1637 139.39 74.7423 139.77 75.1779C140.15 75.6135 140.7 75.8636 141.278 75.8636V73.8636ZM110.847 74.1211L110.398 76.07C111.044 76.219 111.723 76.0376 112.209 75.5857C112.695 75.1338 112.925 74.4703 112.823 73.8145L110.847 74.1211ZM108.687 93.7286L110.252 94.9741C110.733 94.3701 110.823 93.5433 110.484 92.8498C110.145 92.1563 109.437 91.72 108.665 91.7287L108.687 93.7286ZM108.687 93.7293L107.122 92.4837C106.644 93.0845 106.552 93.9061 106.885 94.5979C107.219 95.2896 107.919 95.7293 108.687 95.7293V93.7293ZM143.866 93.7293V95.7293C144.97 95.7293 145.866 94.8338 145.866 93.7293H143.866ZM143.843 95.7285C143.89 95.729 143.936 95.7293 143.982 95.7293V91.7293C143.951 91.7293 143.92 91.7291 143.888 91.7287L143.843 95.7285ZM143.982 95.7293C150.603 95.7293 156 90.4028 156 83.7964H152C152 88.1616 148.426 91.7293 143.982 91.7293V95.7293ZM156 83.7964C156 77.1901 150.603 71.8636 143.982 71.8636V75.8636C148.426 75.8636 152 79.4313 152 83.7964H156ZM143.982 71.8636C143.936 71.8636 143.889 71.8638 143.843 71.8644L143.888 75.8641C143.92 75.8637 143.951 75.8636 143.982 75.8636V71.8636ZM141.866 73.8636V73.8642H145.866V73.8636H141.866ZM141.278 75.8636H143.866V71.8636H141.278V75.8636ZM143.259 74.136C143.365 73.3662 143.42 72.5812 143.42 71.7846H139.42C139.42 72.3984 139.378 73.0014 139.296 73.5911L143.259 74.136ZM143.42 71.7846C143.42 62.244 135.624 54.5388 126.043 54.5388V58.5388C133.447 58.5388 139.42 64.4852 139.42 71.7846H143.42ZM126.043 54.5388C116.463 54.5388 108.667 62.244 108.667 71.7846H112.667C112.667 64.4852 118.64 58.5388 126.043 58.5388V54.5388ZM108.667 71.7846C108.667 72.6821 108.736 73.5649 108.87 74.4277L112.823 73.8145C112.721 73.1539 112.667 72.4761 112.667 71.7846H108.667ZM111.296 72.1721C110.418 71.97 109.506 71.8636 108.57 71.8636V75.8636C109.201 75.8636 109.813 75.9353 110.398 76.07L111.296 72.1721ZM108.57 71.8636C101.949 71.8636 96.5526 77.1901 96.5526 83.7964H100.553C100.553 79.4313 104.126 75.8636 108.57 75.8636V71.8636ZM96.5526 83.7964C96.5526 90.4028 101.949 95.7293 108.57 95.7293V91.7293C104.126 91.7293 100.553 88.1616 100.553 83.7964H96.5526ZM108.57 95.7293C108.617 95.7293 108.664 95.729 108.71 95.7285L108.665 91.7287C108.633 91.7291 108.602 91.7293 108.57 91.7293V95.7293ZM110.252 94.9748L110.252 94.9741L107.123 92.4831L107.122 92.4837L110.252 94.9748ZM143.866 91.7293H108.687V95.7293H143.866V91.7293ZM141.866 93.7286V93.7293H145.866V93.7286H141.866Z" fill="url(#paint6_linear_28401_924)" mask="url(#path-7-inside-2_28401_924)"/>
</g>
<defs>
<filter id="filter0_f_28401_924" x="54.772" y="0.666668" width="113.996" height="113.662" filterUnits="userSpaceOnUse" color-interpolation-filters="sRGB">
<feFlood flood-opacity="0" result="BackgroundImageFix"/>
<feBlend mode="normal" in="SourceGraphic" in2="BackgroundImageFix" result="shape"/>
<feGaussianBlur stdDeviation="18.6667" result="effect1_foregroundBlur_28401_924"/>
</filter>
<filter id="filter1_f_28401_924" x="50.0592" y="40.3015" width="104.724" height="80.1005" filterUnits="userSpaceOnUse" color-interpolation-filters="sRGB">
<feFlood flood-opacity="0" result="BackgroundImageFix"/>
<feBlend mode="normal" in="SourceGraphic" in2="BackgroundImageFix" result="shape"/>
<feGaussianBlur stdDeviation="7" result="effect1_foregroundBlur_28401_924"/>
</filter>
<filter id="filter2_bd_28401_924" x="5.72205e-06" y="34.1388" width="151.39" height="126.128" filterUnits="userSpaceOnUse" color-interpolation-filters="sRGB">
<feFlood flood-opacity="0" result="BackgroundImageFix"/>
<feGaussianBlur in="BackgroundImageFix" stdDeviation="7.46667"/>
<feComposite in2="SourceAlpha" operator="in" result="effect1_backgroundBlur_28401_924"/>
<feColorMatrix in="SourceAlpha" type="matrix" values="0 0 0 0 0 0 0 0 0 0 0 0 0 0 0 0 0 0 127 0" result="hardAlpha"/>
<feOffset dx="-18.6667" dy="14.9333"/>
<feGaussianBlur stdDeviation="18.6667"/>
<feComposite in2="hardAlpha" operator="out"/>
<feColorMatrix type="matrix" values="0 0 0 0 0.0941176 0 0 0 0 0.0941176 0 0 0 0 0.0941176 0 0 0 0.16 0"/>
<feBlend mode="normal" in2="effect1_backgroundBlur_28401_924" result="effect2_dropShadow_28401_924"/>
<feBlend mode="normal" in="SourceGraphic" in2="effect2_dropShadow_28401_924" result="shape"/>
</filter>
<filter id="filter3_bd_28401_924" x="27.5526" y="21.5388" width="155.447" height="137.19" filterUnits="userSpaceOnUse" color-interpolation-filters="sRGB">
<feFlood flood-opacity="0" result="BackgroundImageFix"/>
<feGaussianBlur in="BackgroundImageFix" stdDeviation="7"/>
<feComposite in2="SourceAlpha" operator="in" result="effect1_backgroundBlur_28401_924"/>
<feColorMatrix in="SourceAlpha" type="matrix" values="0 0 0 0 0 0 0 0 0 0 0 0 0 0 0 0 0 0 127 0" result="hardAlpha"/>
<feOffset dx="-21" dy="15"/>
<feGaussianBlur stdDeviation="25"/>
<feComposite in2="hardAlpha" operator="out"/>
<feColorMatrix type="matrix" values="0 0 0 0 0.113438 0 0 0 0 0.148981 0 0 0 0 0.275 0 0 0 0.25 0"/>
<feBlend mode="normal" in2="effect1_backgroundBlur_28401_924" result="effect2_dropShadow_28401_924"/>
<feBlend mode="normal" in="SourceGraphic" in2="effect2_dropShadow_28401_924" result="shape"/>
</filter>
<linearGradient id="paint0_linear_28401_924" x1="111.77" y1="39.2786" x2="111.77" y2="76.9954" gradientUnits="userSpaceOnUse">
<stop stop-color="#FFE600"/>
<stop offset="1" stop-color="#FF7A00"/>
</linearGradient>
<linearGradient id="paint1_linear_28401_924" x1="111.77" y1="39.2786" x2="111.77" y2="76.9954" gradientUnits="userSpaceOnUse">
<stop stop-color="white"/>
<stop offset="1" stop-color="white" stop-opacity="0"/>
</linearGradient>
<linearGradient id="paint2_linear_28401_924" x1="111.77" y1="39.2785" x2="111.77" y2="76.9954" gradientUnits="userSpaceOnUse">
<stop stop-color="#FFD600"/>
<stop offset="1" stop-color="#FF7A00"/>
</linearGradient>
<linearGradient id="paint3_linear_28401_924" x1="94.3619" y1="40.0776" x2="94.3619" y2="115.192" gradientUnits="userSpaceOnUse">
<stop stop-color="white"/>
<stop offset="1" stop-color="white" stop-opacity="0"/>
</linearGradient>
<linearGradient id="paint4_linear_28401_924" x1="94.3619" y1="56.5388" x2="94.3619" y2="108" gradientUnits="userSpaceOnUse">
<stop stop-color="white"/>
<stop offset="1" stop-color="white" stop-opacity="0"/>
</linearGradient>
<linearGradient id="paint5_linear_28401_924" x1="128.855" y1="57.6575" x2="128.855" y2="97.9315" gradientUnits="userSpaceOnUse">
<stop stop-color="white"/>
<stop offset="1" stop-color="white" stop-opacity="0"/>
</linearGradient>
<linearGradient id="paint6_linear_28401_924" x1="126.276" y1="56.5388" x2="126.276" y2="93.7292" gradientUnits="userSpaceOnUse">
<stop stop-color="white"/>
<stop offset="1" stop-color="white" stop-opacity="0"/>
</linearGradient>
</defs>
</svg>
